<svg width="43" height="46" viewBox="0 0 43 46" fill="none" xmlns="http://www.w3.org/2000/svg">
<g filter="url(#filter0_dd_1052_2457)">
<path fill-rule="evenodd" clip-rule="evenodd" d="M33.2962 4.2037H9.96289C7.12956 4.2037 4.96289 6.37037 4.96289 9.2037V32.537C4.96289 35.3704 7.12956 37.537 9.96289 37.537H33.2962C36.1296 37.537 38.2962 35.3704 38.2962 32.537V9.2037C38.2962 6.37037 36.1296 4.2037 33.2962 4.2037ZM34.9629 32.537C34.9629 33.537 34.2962 34.2037 33.2962 34.2037H9.96289C8.96289 34.2037 8.29622 33.537 8.29622 32.537V9.2037C8.29622 8.2037 8.96289 7.53704 9.96289 7.53704H33.2962C34.2962 7.53704 34.9629 8.2037 34.9629 9.2037V32.537ZM28.2962 22.537C29.2962 22.537 29.9629 21.8704 29.9629 20.8704C29.9629 19.8704 29.2962 19.2037 28.2962 19.2037H23.2962V14.2037C23.2962 13.2037 22.6296 12.537 21.6296 12.537C20.6296 12.537 19.9629 13.2037 19.9629 14.2037V19.2037H14.9629C13.9629 19.2037 13.2962 19.8704 13.2962 20.8704C13.2962 21.8704 13.9629 22.537 14.9629 22.537H19.9629V27.537C19.9629 28.537 20.6296 29.2037 21.6296 29.2037C22.6296 29.2037 23.2962 28.537 23.2962 27.537V22.537H28.2962Z" fill="#CFBE86"/>
<mask id="mask0_1052_2457" style="mask-type:luminance" maskUnits="userSpaceOnUse" x="4" y="4" width="35" height="34">
<path fill-rule="evenodd" clip-rule="evenodd" d="M33.2962 4.2037H9.96289C7.12956 4.2037 4.96289 6.37037 4.96289 9.2037V32.537C4.96289 35.3704 7.12956 37.537 9.96289 37.537H33.2962C36.1296 37.537 38.2962 35.3704 38.2962 32.537V9.2037C38.2962 6.37037 36.1296 4.2037 33.2962 4.2037ZM34.9629 32.537C34.9629 33.537 34.2962 34.2037 33.2962 34.2037H9.96289C8.96289 34.2037 8.29622 33.537 8.29622 32.537V9.2037C8.29622 8.2037 8.96289 7.53704 9.96289 7.53704H33.2962C34.2962 7.53704 34.9629 8.2037 34.9629 9.2037V32.537ZM28.2962 22.537C29.2962 22.537 29.9629 21.8704 29.9629 20.8704C29.9629 19.8704 29.2962 19.2037 28.2962 19.2037H23.2962V14.2037C23.2962 13.2037 22.6296 12.537 21.6296 12.537C20.6296 12.537 19.9629 13.2037 19.9629 14.2037V19.2037H14.9629C13.9629 19.2037 13.2962 19.8704 13.2962 20.8704C13.2962 21.8704 13.9629 22.537 14.9629 22.537H19.9629V27.537C19.9629 28.537 20.6296 29.2037 21.6296 29.2037C22.6296 29.2037 23.2962 28.537 23.2962 27.537V22.537H28.2962Z" fill="white"/>
</mask>
<g mask="url(#mask0_1052_2457)">
<path fill-rule="evenodd" clip-rule="evenodd" d="M-5 -6.5H49V47.5H-5V-6.5Z" fill="#CFBE86"/>
</g>
</g>
<defs>
<filter id="filter0_dd_1052_2457" x="-2" y="-3.5" width="48" height="52" filterUnits="userSpaceOnUse" color-interpolation-filters="sRGB">
<feFlood flood-opacity="0" result="BackgroundImageFix"/>
<feColorMatrix in="SourceAlpha" type="matrix" values="0 0 0 0 0 0 0 0 0 0 0 0 0 0 0 0 0 0 127 0" result="hardAlpha"/>
<feOffset/>
<feGaussianBlur stdDeviation="2"/>
<feComposite in2="hardAlpha" operator="out"/>
<feColorMatrix type="matrix" values="0 0 0 0 0.763281 0 0 0 0 0.624676 0 0 0 0 0.255063 0 0 0 0.85 0"/>
<feBlend mode="normal" in2="BackgroundImageFix" result="effect1_dropShadow_1052_2457"/>
<feColorMatrix in="SourceAlpha" type="matrix" values="0 0 0 0 0 0 0 0 0 0 0 0 0 0 0 0 0 0 127 0" result="hardAlpha"/>
<feOffset dy="4"/>
<feGaussianBlur stdDeviation="2"/>
<feComposite in2="hardAlpha" operator="out"/>
<feColorMatrix type="matrix" values="0 0 0 0 0.0875 0 0 0 0 0.0816667 0 0 0 0 0.0816667 0 0 0 0.25 0"/>
<feBlend mode="normal" in2="effect1_dropShadow_1052_2457" result="effect2_dropShadow_1052_2457"/>
<feBlend mode="normal" in="SourceGraphic" in2="effect2_dropShadow_1052_2457" result="shape"/>
</filter>
</defs>
</svg>
