<svg width="30" height="30" viewBox="0 0 30 30" fill="none" xmlns="http://www.w3.org/2000/svg">
<path d="M21.3155 1.37958C20.7423 1.38292 20.3438 1.55811 20.1 1.97841C19.074 3.74677 17.8481 5.59042 17.2552 7.67635C17.4213 7.72499 17.5853 7.78106 17.7458 7.84352C18.1766 8.01128 18.5883 8.22333 18.9494 8.47973C20.5627 6.98313 22.3575 5.83071 24.0734 4.64407C24.7388 4.18387 24.7925 3.84813 24.6701 3.42356C24.5476 2.99899 24.0919 2.46468 23.4674 2.06559C22.843 1.66657 22.0688 1.40173 21.4325 1.38122C21.3926 1.37997 21.3536 1.37938 21.3155 1.37958ZM17.2726 1.42329C16.6855 1.41262 16.2301 1.79788 15.8708 2.60923C15.347 3.79247 15.2725 5.74024 15.7861 7.48335C15.7952 7.48288 15.8043 7.482 15.8135 7.48159C15.9301 7.47649 16.0472 7.47737 16.165 7.48335C16.7179 5.443 17.8037 3.69116 18.7439 2.12038C18.1398 1.62257 17.638 1.43003 17.2727 1.42335L17.2726 1.42329ZM11.5723 4.83397L10.9571 5.74042C11.8255 6.3287 12.6596 6.89618 13.2899 7.57874C13.5193 7.82718 13.7217 8.08979 13.894 8.37602C14.1089 8.10608 14.3835 7.88964 14.6961 7.74368C14.72 7.73266 14.7442 7.72288 14.7681 7.71262C14.5675 7.39387 14.3401 7.10219 14.0937 6.83536C13.3457 6.02518 12.4389 5.42108 11.5723 4.83397ZM24.6838 5.55292C22.9697 6.73815 21.2517 7.84698 19.7416 9.23143C19.7672 9.26518 19.7913 9.29987 19.8153 9.33456C21.027 8.93905 22.7149 8.43614 24.1463 8.19725C24.8192 8.08499 25.0639 7.81335 25.176 7.42218C25.2882 7.031 25.2022 6.44307 24.8646 5.84114C24.8088 5.74232 24.7485 5.64613 24.6839 5.55286L24.6838 5.55292ZM11.5625 8.3578C10.6865 8.36952 9.82037 8.60975 8.98688 9.10581L9.54721 10.0451C10.8162 9.28979 12.0448 9.21696 13.3694 9.7777C13.3999 9.45009 13.4728 9.15302 13.5878 8.88649C13.6083 8.83926 13.6306 8.79356 13.6536 8.74856C12.9581 8.48372 12.2573 8.34854 11.5625 8.35774L11.5625 8.3578ZM16.0039 8.58831C15.6771 8.58345 15.383 8.63178 15.1586 8.73632C14.9021 8.85573 14.7211 9.02425 14.5932 9.3205C14.5414 9.44044 14.5011 9.58651 14.4769 9.7596C14.5037 9.75919 14.5303 9.75784 14.5569 9.75766C15.4975 9.75274 16.4663 9.91997 17.4463 10.2961C17.8983 10.4696 18.3289 10.7328 18.7382 11.0686C18.9267 10.9254 19.0305 10.7921 19.0764 10.6857C19.1473 10.5218 19.1406 10.382 19.0393 10.1689C18.8365 9.74266 18.1482 9.17548 17.3485 8.86405C16.9487 8.70831 16.5294 8.61655 16.146 8.5937C16.098 8.59077 16.0507 8.58897 16.0039 8.58831H16.0039ZM14.5533 10.8416C13.2067 10.846 11.9329 11.2744 10.7447 12.0007C8.84362 13.163 7.19596 15.1135 6.03703 17.2761C4.87822 19.4386 4.21283 21.8118 4.20973 23.7524C4.20662 25.6895 4.8109 27.1081 6.13231 27.724C6.13483 27.7252 6.13711 27.7265 6.13963 27.7277H6.14151C7.59885 28.4021 9.98619 28.8608 12.4935 28.905C15.0007 28.9493 17.6374 28.5852 19.6345 27.7222C20.9213 27.1661 21.6587 26.055 22.0076 24.549C22.3564 23.0428 22.2723 21.1706 21.8684 19.3157C21.4645 17.4608 20.7434 15.6208 19.8707 14.1668C18.9979 12.7128 17.9597 11.6669 17.0545 11.3195C16.1953 10.9898 15.3612 10.8391 14.5533 10.8416Z" fill="#CFBE86"/>
</svg>
