<svg width="30" height="30" viewBox="0 0 30 30" fill="none" xmlns="http://www.w3.org/2000/svg">
<path d="M14.9414 2.66018C13.5059 2.66018 12.1875 3.35159 11.1973 4.61721C10.207 5.87698 9.60937 7.69924 9.60937 9.68557C9.60937 11.7949 10.3184 13.6406 11.4258 14.9297L12.2168 15.8086L11.0684 16.0781C8.00391 16.7754 6.5332 18.2403 5.69238 20.4844C4.88965 22.5762 4.77832 25.4531 4.74902 28.8809H25.2539C25.2422 25.4414 25.2246 22.4766 24.4922 20.3555C23.707 18.0469 22.2715 16.5879 18.9844 15.9375L17.8184 15.7207L18.5742 14.8008C19.6113 13.5176 20.2617 11.7188 20.2617 9.67385C20.2617 7.68752 19.6582 5.87112 18.668 4.61721C17.6836 3.34573 16.3652 2.64846 14.9414 2.66018Z" fill="#C39F41"/>
</svg>
