<svg width="34" height="38" viewBox="0 0 34 38" fill="none" xmlns="http://www.w3.org/2000/svg">
<g filter="url(#filter0_d_1026_3447)">
<path d="M17 5.5625L5.34253 12.2812V25.7188L17 32.4375L28.6575 25.7188V12.2812L17 5.5625Z" stroke="#CFBE86" stroke-width="0.625" stroke-linecap="round" stroke-linejoin="round"/>
<path d="M17 5.5625L9.30503 13.7169L5.34253 25.7188L17 27.3838L28.6575 25.7188L24.695 13.7169L17 5.5625Z" stroke="#CFBE86" stroke-width="0.625" stroke-linecap="round" stroke-linejoin="round"/>
<path d="M17 27.3838L9.30503 13.7169M17 27.3838L24.695 13.7169M17 27.3838V32.4375M9.30503 13.7169H24.695M9.30503 13.7169L5.34253 12.2812M24.695 13.7169L28.6575 12.2812" stroke="#CFBE86" stroke-width="0.625" stroke-linecap="round" stroke-linejoin="round"/>
<path d="M14.7606 17.9087C14.7606 17.3919 15.1625 16.99 15.6794 16.99C16.1962 16.99 16.5981 17.3919 16.5981 17.9087C16.5981 18.1387 16.4831 18.3681 16.3106 18.5406C15.9087 18.8281 14.7606 19.7469 14.7606 19.7469H16.5981M17.4019 18.8275C17.4019 19.3444 17.8037 19.7462 18.3206 19.7462C18.8375 19.7462 19.2394 19.3444 19.2394 18.8275V17.9087C19.2394 17.3919 18.8375 16.99 18.3206 16.99C17.8612 16.99 17.4019 17.3919 17.4019 17.9087V18.8275Z" stroke="#CFBE86" stroke-width="0.625" stroke-linecap="round" stroke-linejoin="round"/>
</g>
<defs>
<filter id="filter0_d_1026_3447" x="-3" y="-1" width="40" height="40" filterUnits="userSpaceOnUse" color-interpolation-filters="sRGB">
<feFlood flood-opacity="0" result="BackgroundImageFix"/>
<feColorMatrix in="SourceAlpha" type="matrix" values="0 0 0 0 0 0 0 0 0 0 0 0 0 0 0 0 0 0 127 0" result="hardAlpha"/>
<feOffset/>
<feGaussianBlur stdDeviation="2.5"/>
<feColorMatrix type="matrix" values="0 0 0 0 0.763281 0 0 0 0 0.624676 0 0 0 0 0.255063 0 0 0 1 0"/>
<feBlend mode="normal" in2="BackgroundImageFix" result="effect1_dropShadow_1026_3447"/>
<feBlend mode="normal" in="SourceGraphic" in2="effect1_dropShadow_1026_3447" result="shape"/>
</filter>
</defs>
</svg>
