<svg width="30" height="30" viewBox="0 0 30 30" fill="none" xmlns="http://www.w3.org/2000/svg">
<path d="M5.9238 1.45782L7.93943 9.19923L13.1015 9.48048L12.9258 8.47267L12.8144 7.81642L20.039 8.25001L20.3261 9.87892L24.7734 10.125L22.8691 2.82306L5.9238 1.45782ZM4.82107 1.55157C3.03396 2.24884 1.5574 4.6629 1.9031 5.96486L2.09646 6.65626C2.13162 6.55079 2.17263 6.45118 2.21951 6.34572C2.79958 4.95587 3.77224 3.60236 5.16677 2.89337L4.82107 1.55157ZM5.45388 3.98907C4.47537 4.57501 3.70193 5.63556 3.22732 6.76759C2.92263 7.50001 2.75857 8.26759 2.71755 8.90626L3.7406 12.627C4.4906 11.3848 5.50955 10.1484 6.90232 9.55665L5.45388 3.98907ZM14.0801 8.95314L15.2636 15.832L20.3613 16.084L19.1484 9.25782L14.0801 8.95314ZM16.8222 10.1953C16.8687 10.1933 16.9156 10.1933 16.9629 10.1953C17.1505 10.2034 17.3407 10.2437 17.5224 10.3141C17.7042 10.3845 17.874 10.4835 18.0221 10.6054C18.1702 10.7274 18.2936 10.8699 18.3854 11.0247C18.4771 11.1796 18.5353 11.3438 18.5566 11.5078C18.59 11.7617 18.5338 12.0056 18.3956 12.2066C18.2573 12.4077 18.0437 12.5564 17.7832 12.6328L19.0019 14.8301L16.1484 14.7012L16.7871 12.5859C16.503 12.4855 16.247 12.316 16.0533 12.1003C15.8595 11.8846 15.7374 11.6329 15.7031 11.3789C15.6618 11.0697 15.7535 10.7773 15.9603 10.5585C16.1672 10.3398 16.4744 10.2103 16.8222 10.1953ZM8.22068 10.2715L9.09958 13.6465L13.8574 13.8457L13.2832 10.5527L8.22068 10.2715ZM7.17185 10.5996C5.89451 11.2207 4.85622 12.7266 4.14079 14.0801L4.87087 16.7344C5.47263 15.8145 6.27537 14.8125 8.00974 13.8106L7.17185 10.5996ZM20.5195 10.9453L21.0879 14.1504L25.875 14.3555L25.0488 11.1973L20.5195 10.9453ZM9.37497 14.7129L11.2031 21.7207L28.1484 23.0801L26.1562 15.4277L21.2754 15.2227L21.6269 17.209L14.373 16.8399L14.039 14.9121L9.37497 14.7129ZM8.28513 14.8711C6.41013 16.0078 5.95896 16.9746 5.25056 18.1172L6.50974 22.6934C6.52732 22.6641 6.5449 22.6289 6.56247 22.5996C7.18357 21.4688 8.19138 20.3906 9.55662 19.7578L8.28513 14.8711ZM9.84372 20.8418C8.80662 21.375 8.0156 22.2305 7.52341 23.127C7.25974 23.6016 7.09568 24.082 7.01365 24.5156L7.69919 27L7.79294 27.0117C7.57029 25.3945 8.46091 23.4668 10.2129 22.2598L9.84372 20.8418ZM11.3847 22.834C9.47458 23.8477 8.66013 25.9043 8.93552 27.1055L25.916 28.541C25.6054 28.084 25.4062 27.4922 25.4121 26.8711L24.0996 26.3438L26.8125 25.916L26.0215 25.166C26.3496 24.7559 26.8242 24.3984 27.4804 24.1289L11.3847 22.834Z" fill="#CFBE86"/>
</svg>
