<svg width="30" height="30" viewBox="0 0 30 30" fill="none" xmlns="http://www.w3.org/2000/svg">
<path d="M6.15234 2.40234V8.02734H7.91016V2.40234H6.15234ZM22.0898 2.40234V8.14453H23.8477V2.40234H22.0898ZM1.46484 3.33984V5.09766H5.09766V3.33984H1.46484ZM8.96484 3.33984V5.09766H21.0352V3.33984H8.96484ZM24.9023 3.33984V5.09766H28.5352V3.33984H24.9023ZM4.04297 8.02734V13.8281L7.37109 14.6602L4.04297 15.5684V22.957C4.88613 22.752 5.74277 22.8574 6.54492 23.1562C7.59375 23.5371 8.58984 24.2109 9.56836 24.9199C11.5254 26.3438 13.4297 27.8672 15 27.8672C16.5703 27.8672 18.4746 26.3438 20.4316 24.9199C21.4102 24.2109 22.4062 23.5371 23.4551 23.1562C24.2578 22.8574 25.1133 22.752 25.957 22.957V20.4609L25.0547 19.834L23.4023 18.6855L25.957 18.9258V12.9141L23.2793 12.0645L25.957 11.5078V8.02734H24.9023V9.19922H21.0352V8.02734H8.96484V9.08203H5.09766V8.02734H4.04297ZM14.8418 9.78516H14.8594C15.7324 9.81445 16.1953 10.4824 16.4121 10.6934C16.5234 10.8047 16.5176 10.7871 16.5352 10.7871C16.8574 10.6406 16.9336 10.5703 17.1973 10.3359H17.3965C17.9824 10.3359 18.498 10.6465 18.8438 11.0859C19.1895 11.5254 19.3828 12.1055 19.3828 12.7324C19.3828 12.9609 19.3594 13.1777 19.3066 13.3887C19.5469 13.3008 19.7812 13.2305 20.0215 13.2188C20.1094 13.207 20.1914 13.2129 20.2734 13.2246C20.6191 13.2598 21.0176 13.5293 21.1289 13.9102C21.7324 15.9141 21.5801 18.0938 21.1348 19.8164C20.9766 20.4375 20.5137 20.8477 20.0449 21.0059C19.7812 21.0938 19.5234 21.1289 19.2773 21.1465C19.2656 21.2637 19.2773 23.0566 19.2773 24.082H10.7227C10.7168 23.0332 10.7227 22.0488 10.7227 21.0352C10.9277 19.2598 11.2441 16.8398 11.4609 14.9121C10.6934 14.5488 10.1543 13.8105 10.1543 12.9375C10.1543 11.6953 11.25 10.7227 12.5332 10.7227C12.7734 10.7227 13.0137 10.7578 13.2363 10.8281C13.6055 10.2129 14.168 9.78516 14.8418 9.78516ZM14.8359 10.8398C14.5605 10.8457 14.209 11.0918 13.9863 11.6836L13.7754 12.252L13.2422 11.959C13.0312 11.8418 12.7793 11.7773 12.5332 11.7773C11.7656 11.7773 11.209 12.3164 11.209 12.9375C11.209 13.5586 11.7656 14.0977 12.5332 14.0977C12.8496 14.0977 13.1543 13.998 13.3828 13.8281L13.8457 13.4824L14.1504 13.9746C14.373 14.3438 14.625 14.4727 14.8418 14.4727C15.1172 14.4727 15.4746 14.2207 15.7031 13.6172L16.1074 12.5332L16.6582 13.5469C16.8633 13.916 17.1328 14.0742 17.3965 14.0742C17.6133 14.0742 17.8242 13.9629 18.0117 13.7285C18.1934 13.4941 18.3281 13.1367 18.3281 12.7324C18.3281 12.3281 18.1934 11.9707 18.0117 11.7363C17.8711 11.5605 17.7188 11.4551 17.5547 11.4082C17.2266 11.666 16.9219 11.8242 16.5879 11.8418C16.1953 11.8594 15.873 11.6367 15.6797 11.4551C15.3047 11.0918 15.2051 10.8574 14.8359 10.8398ZM20.1328 14.2734C19.5527 14.3438 18.9785 14.7129 18.5566 15.0469L19.1191 20.0918C19.3477 20.0801 19.5586 20.0566 19.7051 20.0039C19.9336 19.9277 20.0332 19.8691 20.1152 19.5586C20.5137 18.0059 20.6367 16.0078 20.1328 14.2734ZM16.2891 14.7188C15.9258 15.2051 15.4277 15.5273 14.8418 15.5273C14.3496 15.5273 13.9043 15.2988 13.5586 14.9297C13.2363 15.0762 12.8848 15.1523 12.5332 15.1523H12.498L11.8418 21.0352H18.1582L17.502 15.123C17.4668 15.1289 17.4316 15.1289 17.3965 15.1289C16.9863 15.1289 16.6055 14.9766 16.2891 14.7188ZM11.7773 22.0898V23.0273H18.2227V22.0898H11.7773Z" fill="#C39F41"/>
</svg>
