<svg width="30" height="30" viewBox="0 0 30 30" fill="none" xmlns="http://www.w3.org/2000/svg">
<path d="M13.3242 2.03321C12.7324 2.03321 12.1406 2.04493 11.5547 2.0625L11.9121 5.90625L8.33203 2.24414C6.49805 2.39063 4.66992 2.63086 2.83594 2.97657L4.83984 4.64063L2.02734 4.60547C4.08398 10.4766 2.43164 15.3047 2.00977 21.7207L7.61719 27.9199C8.20312 27.8438 8.7832 27.7793 9.35156 27.7266L10.6113 25.2539L11.7012 26.9414L14.1328 24.9785L14.1797 27.4981C19.0371 27.4863 23.4199 28.0313 27.9902 27.9609C26.3379 23.6836 26.1621 19.5469 26.1211 15.7031L24.1699 14.584L26.0859 12.5977C26.0625 11.3496 26.0098 10.1367 25.875 8.97071L22.5117 9.01172L25.4531 6.56836C25.2305 5.66016 24.9258 4.78711 24.5098 3.94922L22.7812 2.54883C19.6289 2.22657 16.4766 2.02735 13.3242 2.03321ZM16.7637 4.20118C17.3848 5.65137 18 7.10157 18.6211 8.55469C19.0605 7.93946 19.4941 7.32422 19.9336 6.70899C20.8711 8.30274 21.8086 9.89063 22.7461 11.4844L21.7969 12.041L19.8457 8.71875L17.3555 12.1992L16.4648 11.5606L17.8711 9.59766L16.5879 6.58008L15.1465 8.92969L15.8496 10.2539L14.8828 10.7695L13.8105 8.74805L12.3574 12.1582L11.3496 11.7246L13.2539 7.25977L13.7051 6.20508C13.9863 6.74414 14.2676 7.27735 14.5547 7.81055C15.2871 6.60352 16.0254 5.40176 16.7637 4.20118ZM5.34375 7.5C5.7375 7.59375 6.12891 7.69922 6.46875 7.81055C6.3457 8.15625 6.22852 8.50196 6.10547 8.8418C5.76621 8.74805 5.41875 8.64258 5.11523 8.56641C5.19668 8.21485 5.26875 7.85743 5.34375 7.5ZM7.56445 8.28516C7.93359 8.50782 8.26758 8.70704 8.56055 9.03516L7.76953 9.78516C7.53516 9.56836 7.26562 9.375 7.01953 9.23438L7.56445 8.28516ZM9.24609 10.1777C9.36914 10.6113 9.36914 11.0977 9.33984 11.4961L8.25586 11.3555C8.26172 11.0566 8.27344 10.7695 8.19727 10.5059L9.24609 10.1777ZM8.00391 12.2695L9.01172 12.6856C8.81836 13.0723 8.71289 13.4297 8.50781 13.7285L7.55273 13.2012C7.70508 12.8848 7.88086 12.5684 8.00391 12.2695ZM7.03711 14.2676L8.07422 14.625C7.98633 14.9414 7.89844 15.2813 7.86328 15.5742L6.77344 15.457C6.84961 15.0176 6.89648 14.6367 7.03711 14.2676ZM19.2129 15.2871C19.7109 15.3457 20.0684 15.4629 20.4844 15.7031L19.9102 16.6406C19.6699 16.4766 19.3594 16.418 19.1191 16.377L19.2129 15.2871ZM17.9707 15.375C18.0352 15.7324 18.1172 16.0898 18.1992 16.4473C17.8535 16.5234 17.5137 16.6406 17.2324 16.7461L16.834 15.7266C17.2266 15.5859 17.625 15.4512 17.9707 15.375ZM15.75 16.3066L16.3945 17.1914C16.0664 17.4258 15.7031 17.6484 15.4102 17.8125L14.8887 16.8516C15.1875 16.6816 15.5098 16.4824 15.75 16.3066ZM7.92773 16.4648C8.01562 16.7402 8.17383 17.0039 8.33203 17.1738L7.52344 17.9121C7.20117 17.5781 6.9668 17.1211 6.86719 16.7344L7.92773 16.4648ZM21.4219 16.6582C21.627 17.0332 21.8203 17.4023 21.9316 17.7773L20.8887 18.1055C20.7715 17.7891 20.6367 17.4727 20.4902 17.2383L21.4219 16.6582ZM13.957 17.2969L14.3613 18.3106C13.9863 18.4688 13.6055 18.5918 13.2715 18.6914L12.9785 17.6367C13.3242 17.543 13.6406 17.4141 13.957 17.2969ZM9.04687 17.6602C9.35742 17.7598 9.67969 17.8594 9.9668 17.9063C9.89648 18.2637 9.84961 18.627 9.80273 18.9902C9.39258 18.9316 8.95312 18.7969 8.60156 18.6563L9.04687 17.6602ZM11.9766 17.8652L12.1406 18.9492C11.7188 19.0254 11.3555 19.043 10.9805 19.0606L10.957 17.9648C11.3027 17.9531 11.6367 17.918 11.9766 17.8652ZM22.2012 18.9199C22.2598 19.2949 22.2949 19.6758 22.3301 20.0508L21.2344 20.1387C21.2109 19.7871 21.1816 19.4414 21.1172 19.0957L22.2012 18.9199ZM18.2402 20.7246C19.3477 20.9297 20.8711 21.6738 22.2773 22.7109C22.7109 22.1309 23.1211 21.5156 23.5254 20.8887L25.2891 21.6445C25.0137 22.3652 24.4102 23.1445 23.6133 23.8242C24.6094 24.7734 25.4238 25.8457 25.7812 26.9297C24.9727 25.8691 23.959 25.0664 22.834 24.4219C21.4629 25.3477 19.7461 25.9395 18.1699 25.6172C19.5117 25.3594 20.5488 24.6445 21.4395 23.707C20.4727 23.2676 19.459 22.8926 18.4336 22.5293L18.2402 20.7246Z" fill="#C39F41"/>
</svg>
